<svg width="239.48001098632812px" height="63.199999999999996px" xmlns="http://www.w3.org/2000/svg" viewBox="130.25999450683594 43.400000000000006 239.48001098632812 63.199999999999996" style="background: rgba(0, 0, 0, 0);" preserveAspectRatio="xMidYMid"><defs><linearGradient id="editing-gradient-gradient" x1="0" x2="1" y1="0.5" y2="0.5" gradientUnits="objectBoundingBox"><stop offset="0" stop-color="#f0f"></stop><stop offset="1" stop-color="#0ff"></stop></linearGradient></defs><g><g transform="translate(169.1750147342682, 86.8350019454956)"><path d="M2.34-18.21L4.94-18.21L4.94 0L2.34 0L2.34-18.21ZM9.36-3.02L9.36-11.02L9.36-11.02Q9.36-11.54 9.55-12.00L9.55-12.00L9.55-12.00Q9.75-12.45 10.09-12.79L10.09-12.79L10.09-12.79Q10.42-13.13 10.88-13.32L10.88-13.32L10.88-13.32Q11.34-13.52 11.84-13.52L11.84-13.52L16.33-13.52L16.33-13.52Q16.82-13.52 17.27-13.34L17.27-13.34L17.27-13.34Q17.71-13.15 18.05-12.83L18.05-12.83L18.05-12.83Q18.38-12.50 18.59-12.07L18.59-12.07L18.59-12.07Q18.80-11.63 18.81-11.13L18.81-11.13L18.81-13.52L21.32-13.52L21.32 2.96L21.32 2.96Q21.32 3.48 21.12 3.94L21.12 3.94L21.12 3.94Q20.92 4.39 20.59 4.73L20.59 4.73L20.59 4.73Q20.25 5.07 19.79 5.26L19.79 5.26L19.79 5.26Q19.33 5.46 18.81 5.46L18.81 5.46L10.92 5.46L10.92 2.96L18.81 2.96L18.81-0.52L11.84-0.52L11.84-0.52Q11.34-0.52 10.88-0.72L10.88-0.72L10.88-0.72Q10.42-0.91 10.09-1.25L10.09-1.25L10.09-1.25Q9.75-1.59 9.55-2.04L9.55-2.04L9.55-2.04Q9.36-2.50 9.36-3.02L9.36-3.02ZM11.84-3.02L18.81-3.02L18.81-11.02L11.84-11.02L11.84-3.02ZM37.17-11.02L37.17-2.50L37.17-2.50Q37.17-1.98 36.98-1.52L36.98-1.52L36.98-1.52Q36.78-1.07 36.44-0.73L36.44-0.73L36.44-0.73Q36.11-0.39 35.65-0.20L35.65-0.20L35.65-0.20Q35.20 0 34.68 0L34.68 0L27.97 0L27.97 0Q27.46 0 27.00-0.20L27.00-0.20L27.00-0.20Q26.55-0.39 26.21-0.73L26.21-0.73L26.21-0.73Q25.87-1.07 25.68-1.52L25.68-1.52L25.68-1.52Q25.48-1.98 25.48-2.50L25.48-2.50L25.48-11.02L25.48-11.02Q25.48-11.54 25.68-12.00L25.68-12.00L25.68-12.00Q25.87-12.45 26.21-12.79L26.21-12.79L26.21-12.79Q26.55-13.13 27.00-13.32L27.00-13.32L27.00-13.32Q27.46-13.52 27.97-13.52L27.97-13.52L34.68-13.52L34.68-13.52Q35.20-13.52 35.65-13.32L35.65-13.32L35.65-13.32Q36.11-13.13 36.44-12.79L36.44-12.79L36.44-12.79Q36.78-12.45 36.98-12.00L36.98-12.00L36.98-12.00Q37.17-11.54 37.17-11.02L37.17-11.02ZM34.68-11.02L27.97-11.02L27.97-2.50L34.68-2.50L34.68-11.02ZM48.98-11.02L43.82-11.02L43.82 0L41.34 0L41.34-13.52L43.82-13.52L43.82-11.13L43.82-11.13Q43.85-11.63 44.05-12.07L44.05-12.07L44.05-12.07Q44.26-12.50 44.59-12.83L44.59-12.83L44.59-12.83Q44.93-13.15 45.37-13.34L45.37-13.34L45.37-13.34Q45.82-13.52 46.33-13.52L46.33-13.52L48.98-13.52L48.98-13.52Q49.50-13.52 49.95-13.32L49.95-13.32L49.95-13.32Q50.40-13.13 50.74-12.79L50.74-12.79L50.74-12.79Q51.09-12.45 51.28-12.00L51.28-12.00L51.28-12.00Q51.48-11.54 51.48-11.02L51.48-11.02L51.48-8.73L48.98-8.73L48.98-11.02ZM62.64 0L62.64-18.21L75.91-18.21L75.91-15.60L65.24-15.60L65.24-10.40L74.34-10.40L74.34-7.79L65.24-7.79L65.24 0L62.64 0ZM79.28-2.50L79.28-13.52L81.77-13.52L81.77-2.50L88.74-2.50L88.74-13.52L91.24-13.52L91.24 0L88.74 0L88.74-2.29L88.74-2.29Q88.70-1.82 88.49-1.40L88.49-1.40L88.49-1.40Q88.27-0.98 87.93-0.67L87.93-0.67L87.93-0.67Q87.60-0.36 87.17-0.18L87.17-0.18L87.17-0.18Q86.73 0 86.25 0L86.25 0L81.77 0L81.77 0Q81.26 0 80.81-0.20L80.81-0.20L80.81-0.20Q80.35-0.39 80.01-0.73L80.01-0.73L80.01-0.73Q79.68-1.07 79.48-1.52L79.48-1.52L79.48-1.52Q79.28-1.98 79.28-2.50L79.28-2.50ZM103.05-11.02L97.89-11.02L97.89 0L95.41 0L95.41-13.52L97.89-13.52L97.89-11.13L97.89-11.13Q97.92-11.63 98.12-12.07L98.12-12.07L98.12-12.07Q98.33-12.50 98.66-12.83L98.66-12.83L98.66-12.83Q99.00-13.15 99.44-13.34L99.44-13.34L99.44-13.34Q99.89-13.52 100.39-13.52L100.39-13.52L103.05-13.52L103.05-13.52Q103.57-13.52 104.02-13.32L104.02-13.32L104.02-13.32Q104.47-13.13 104.81-12.79L104.81-12.79L104.81-12.79Q105.16-12.45 105.35-12.00L105.35-12.00L105.35-12.00Q105.55-11.54 105.55-11.02L105.55-11.02L105.55-8.73L103.05-8.73L103.05-11.02ZM125.09-11.02L119.37-11.02L119.37 0L116.87 0L116.87-11.02L111.15-11.02L111.15 0L108.66 0L108.66-13.52L111.15-13.52L111.15-11.13L111.15-11.13Q111.17-11.63 111.38-12.07L111.38-12.07L111.38-12.07Q111.58-12.50 111.92-12.83L111.92-12.83L111.92-12.83Q112.25-13.15 112.70-13.34L112.70-13.34L112.70-13.34Q113.14-13.52 113.65-13.52L113.65-13.52L116.87-13.52L116.87-13.52Q117.37-13.52 117.81-13.34L117.81-13.34L117.81-13.34Q118.26-13.15 118.60-12.83L118.60-12.83L118.60-12.83Q118.94-12.50 119.15-12.07L119.15-12.07L119.15-12.07Q119.36-11.63 119.37-11.13L119.37-11.13L119.37-11.13Q119.40-11.63 119.60-12.07L119.60-12.07L119.60-12.07Q119.79-12.50 120.13-12.83L120.13-12.83L120.13-12.83Q120.47-13.15 120.91-13.34L120.91-13.34L120.91-13.34Q121.35-13.52 121.86-13.52L121.86-13.52L125.09-13.52L125.09-13.52Q125.61-13.52 126.06-13.32L126.06-13.32L126.06-13.32Q126.52-13.13 126.86-12.79L126.86-12.79L126.86-12.79Q127.19-12.45 127.39-12.00L127.39-12.00L127.39-12.00Q127.59-11.54 127.59-11.02L127.59-11.02L127.59 0L125.09 0L125.09-11.02ZM131.75-2.50L131.75-5.90L131.75-5.90Q131.75-6.42 131.95-6.87L131.95-6.87L131.95-6.87Q132.15-7.33 132.48-7.67L132.48-7.67L132.48-7.67Q132.82-8.01 133.28-8.21L133.28-8.21L133.28-8.21Q133.73-8.40 134.24-8.40L134.24-8.40L140.69-8.40L140.69-11.02L132.53-11.02L132.53-13.52L140.69-13.52L140.69-13.52Q141.21-13.52 141.67-13.32L141.67-13.32L141.67-13.32Q142.12-13.13 142.46-12.79L142.46-12.79L142.46-12.79Q142.80-12.45 142.99-12.00L142.99-12.00L142.99-12.00Q143.19-11.54 143.19-11.02L143.19-11.02L143.19 0L140.69 0L140.69-2.29L140.69-2.29Q140.65-1.82 140.44-1.40L140.44-1.40L140.44-1.40Q140.22-0.98 139.88-0.67L139.88-0.67L139.88-0.67Q139.55-0.36 139.12-0.18L139.12-0.18L139.12-0.18Q138.68 0 138.20 0L138.20 0L134.24 0L134.24 0Q133.73 0 133.28-0.20L133.28-0.20L133.28-0.20Q132.82-0.39 132.48-0.73L132.48-0.73L132.48-0.73Q132.15-1.07 131.95-1.52L131.95-1.52L131.95-1.52Q131.75-1.98 131.75-2.50L131.75-2.50ZM134.24-5.90L134.24-2.50L140.69-2.50L140.69-5.90L134.24-5.90ZM159.31-11.02L159.31 0L156.81 0L156.81-11.02L149.84-11.02L149.84 0L147.35 0L147.35-13.52L149.84-13.52L149.84-11.13L149.84-11.13Q149.87-11.63 150.07-12.07L150.07-12.07L150.07-12.07Q150.27-12.50 150.61-12.83L150.61-12.83L150.61-12.83Q150.95-13.15 151.39-13.34L151.39-13.34L151.39-13.34Q151.84-13.52 152.34-13.52L152.34-13.52L156.81-13.52L156.81-13.52Q157.33-13.52 157.79-13.32L157.79-13.32L157.79-13.32Q158.25-13.13 158.58-12.79L158.58-12.79L158.58-12.79Q158.92-12.45 159.12-12.00L159.12-12.00L159.12-12.00Q159.31-11.54 159.31-11.02L159.31-11.02Z" fill="url(#editing-gradient-gradient)"></path></g></g><style>text {
  font-size: 64px;
  font-family: Arial Black;
  dominant-baseline: central;
  text-anchor: middle;
}</style></svg>